<svg xmlns="http://www.w3.org/2000/svg" viewBox="0 0 860 560" font-family="Arial, sans-serif">
  <defs>
    <marker id="a" markerWidth="6" markerHeight="5" refX="5" refY="2.5" orient="auto"><path d="M0,0 L6,2.5 L0,5 Z" fill="#64748b"/></marker>
    <marker id="aGray" markerWidth="6" markerHeight="5" refX="5" refY="2.5" orient="auto"><path d="M0,0 L6,2.5 L0,5 Z" fill="#94a3b8"/></marker>
    <filter id="sh"><feDropShadow dx="0" dy="1" stdDeviation="1.5" flood-opacity="0.08"/></filter>
  </defs>
  <rect width="860" height="560" fill="#f8fafc" rx="6"/>
  <rect x="0" y="0" width="860" height="32" fill="#1e293b" rx="6"/>
  <rect x="0" y="16" width="860" height="16" fill="#1e293b"/>
  <text x="430" y="21" text-anchor="middle" fill="#f1f5f9" font-size="12" font-weight="bold">Tool 体系全链路 — 三来源统一注册 · Profile.tools 过滤不多不少 · enforce 先于 IO（坑十）</text>
  <rect x="30" y="55" width="170" height="36" rx="6" fill="#fef3c7" stroke="#f59e0b" stroke-width="1.2" filter="url(#sh)"/>
  <text x="115.0" y="72" text-anchor="middle" font-size="10" font-weight="bold" fill="#b45309">内置 Tool 六件（本课交付）</text>
  <rect x="30" y="100" width="170" height="36" rx="6" fill="#fef3c7" stroke="#f59e0b" stroke-width="1.2" filter="url(#sh)"/>
  <text x="115.0" y="117" text-anchor="middle" font-size="10" font-weight="bold" fill="#b45309">方式二 MCP（业务方自写 server）</text>
  <rect x="30" y="145" width="170" height="36" rx="6" fill="#fef3c7" stroke="#f59e0b" stroke-width="1.2" filter="url(#sh)"/>
  <text x="115.0" y="162" text-anchor="middle" font-size="10" font-weight="bold" fill="#b45309">方式三 @Tool Bean（业务方 Java）</text>
  <rect x="230" y="100" width="190" height="30" rx="6" fill="#dcfce7" stroke="#10b981" stroke-width="1.2" filter="url(#sh)"/>
  <text x="325.0" y="117" text-anchor="middle" font-size="10" font-weight="bold" fill="#15803d">NotifyTools（004 交付，本课注册）</text>
  <line x1="650" y1="97" x2="422" y2="112" stroke="#64748b" stroke-width="1.3" marker-end="url(#a)"/>
  <line x1="200" y1="73" x2="228" y2="163" stroke="#64748b" stroke-width="1.3" marker-end="url(#a)"/>
  <line x1="200" y1="118" x2="228" y2="165" stroke="#64748b" stroke-width="1.3" marker-end="url(#a)"/>
  <line x1="200" y1="163" x2="228" y2="167" stroke="#64748b" stroke-width="1.3" marker-end="url(#a)"/>
  <line x1="325" y1="130" x2="325" y2="148" stroke="#64748b" stroke-width="1.3" marker-end="url(#a)"/>
  <rect x="230" y="150" width="190" height="70" rx="6" fill="#dcfce7" stroke="#10b981" stroke-width="1.2" filter="url(#sh)"/>
  <text x="325.0" y="167" text-anchor="middle" font-size="10" font-weight="bold" fill="#15803d">ToolRegistry 统一注册</text>
  <text x="325.0" y="182" text-anchor="middle" font-size="8" fill="#166534">三来源全包装成 OryxTool</text>
  <text x="325.0" y="196" text-anchor="middle" font-size="8" fill="#166534">坑十四：按 Profile.tools 过滤——不多不少</text>
  <rect x="470" y="145" width="130" height="42" rx="6" fill="#dbeafe" stroke="#3b82f6" stroke-width="1.2" filter="url(#sh)"/>
  <text x="535.0" y="162" text-anchor="middle" font-size="10" font-weight="bold" fill="#1e40af">Profile.tools</text>
  <text x="535.0" y="177" text-anchor="middle" font-size="8" fill="#1d4ed8">（001 交付）</text>
  <line x1="470" y1="166" x2="422" y2="168" stroke="#64748b" stroke-width="1.3" marker-end="url(#a)"/>
  <rect x="230" y="270" width="390" height="46" rx="6" fill="#dbeafe" stroke="#3b82f6" stroke-width="1.2" filter="url(#sh)"/>
  <text x="425.0" y="287" text-anchor="middle" font-size="10" font-weight="bold" fill="#1e40af">ToolExecutor — 按名调度 + 审计 day one</text>
  <text x="425.0" y="302" text-anchor="middle" font-size="8" fill="#1d4ed8">（002 已交付；本课不新增审计逻辑、不改本类）</text>
  <line x1="325" y1="220" x2="325" y2="268" stroke="#64748b" stroke-width="1.3" marker-end="url(#a)"/>
  <rect x="230" y="355" width="310" height="90" rx="6" fill="#dcfce7" stroke="#10b981" stroke-width="1.2" filter="url(#sh)"/>
  <text x="385.0" y="372" text-anchor="middle" font-size="10" font-weight="bold" fill="#15803d">各 Tool.execute — 首行自 enforce（坑十）</text>
  <text x="385.0" y="387" text-anchor="middle" font-size="8" fill="#166534">① sandbox.enforce(FILE_READ/WRITE · SHELL · HTTP_REQUEST)</text>
  <text x="385.0" y="401" text-anchor="middle" font-size="8" fill="#166534">② 通过才真 IO：读写文件 / 跑命令 / 发请求</text>
  <text x="385.0" y="415" text-anchor="middle" font-size="8" fill="#166534">③ NotifyTools/方式三 同链路（执行权唯一：ToolExecutor）</text>
  <line x1="425" y1="316" x2="425" y2="353" stroke="#64748b" stroke-width="1.3" marker-end="url(#a)"/>
  <rect x="230" y="452" width="310" height="30" rx="6" fill="#fecdd3" stroke="#be123c" stroke-width="1.2" filter="url(#sh)"/>
  <text x="385.0" y="469" text-anchor="middle" font-size="10" font-weight="bold" fill="#9f1239">违规路径（坑十）：enforce 拒绝 → SandboxViolationException</text>
  <text x="385.0" y="484" text-anchor="middle" font-size="8" fill="#9f1239">IO 零发生 · 审计 success=false</text>
  <line x1="385" y1="445" x2="385" y2="450" stroke="#64748b" stroke-width="1.3" marker-end="url(#a)"/>
  <rect x="650" y="55" width="180" height="78" rx="6" fill="#f1f5f9" stroke="#64748b" stroke-width="1.2" filter="url(#sh)"/>
  <text x="740.0" y="72" text-anchor="middle" font-size="10" font-weight="bold" fill="#334155">装配处（CliAgentConfiguration 改造）</text>
  <text x="740.0" y="87" text-anchor="middle" font-size="8" fill="#475569">RestClient：Boot builder + timeout（不变量 9）</text>
  <text x="740.0" y="101" text-anchor="middle" font-size="8" fill="#475569">Map.of("webhook", webhookAdapter)</text>
  <text x="740.0" y="115" text-anchor="middle" font-size="8" fill="#475569">NotifyChannelRegistry + NotifyTools 显式 @Bean</text>
  <rect x="650" y="150" width="180" height="40" rx="6" fill="#dbeafe" stroke="#3b82f6" stroke-width="1.2" filter="url(#sh)"/>
  <text x="740.0" y="167" text-anchor="middle" font-size="10" font-weight="bold" fill="#1e40af">.oryxos/mcp_servers.yaml</text>
  <text x="740.0" y="182" text-anchor="middle" font-size="8" fill="#1d4ed8">name/transport/command/env（stdio）</text>
  <rect x="650" y="205" width="180" height="40" rx="6" fill="#fecdd3" stroke="#be123c" stroke-width="1.2" filter="url(#sh)"/>
  <text x="740.0" y="222" text-anchor="middle" font-size="10" font-weight="bold" fill="#9f1239">坑十三：MCP 失联只 WARN 跳过</text>
  <text x="740.0" y="237" text-anchor="middle" font-size="8" fill="#9f1239">其余工具照常注册——启动不炸</text>
  <rect x="650" y="260" width="180" height="40" rx="6" fill="#ede9fe" stroke="#8b5cf6" stroke-width="1.2" filter="url(#sh)"/>
  <text x="740.0" y="277" text-anchor="middle" font-size="10" font-weight="bold" fill="#6d28d9">坑十二：契约三件套参数化</text>
  <text x="740.0" y="292" text-anchor="middle" font-size="8" fill="#7c3aed">name/description/inputSchema 缺一立刻红</text>
  <rect x="650" y="315" width="180" height="40" rx="6" fill="#f1f5f9" stroke="#cbd5e1" stroke-width="1.2" stroke-dasharray="5,3" filter="url(#sh)"/>
  <text x="740.0" y="332" text-anchor="middle" font-size="10" font-weight="bold" fill="#94a3b8">明确不做</text>
  <text x="740.0" y="347" text-anchor="middle" font-size="8" fill="#94a3b8">Tool Policy/并行/SSE/容器沙箱 → 扩展阶段</text>
  <rect x="650" y="370" width="180" height="48" rx="6" fill="#f1f5f9" stroke="#64748b" stroke-width="1.2" filter="url(#sh)"/>
  <text x="740.0" y="387" text-anchor="middle" font-size="10" font-weight="bold" fill="#334155">PermissiveSandbox（拍板）</text>
  <text x="740.0" y="402" text-anchor="middle" font-size="8" fill="#475569">临时全放行——20~23 节生产接线</text>
  <text x="740.0" y="416" text-anchor="middle" font-size="8" fill="#475569">24 节无缝替换（002 FR-7）</text>
  <rect x="650" y="426" width="180" height="40" rx="6" fill="#f1f5f9" stroke="#cbd5e1" stroke-width="1.2" stroke-dasharray="5,3" filter="url(#sh)"/>
  <text x="740.0" y="443" text-anchor="middle" font-size="10" font-weight="bold" fill="#94a3b8">WhitelistSandbox 三层白名单</text>
  <text x="740.0" y="458" text-anchor="middle" font-size="8" fill="#94a3b8">归第 23/24 节（本节不翻案）</text>
  <line x1="650" y1="394" x2="542" y2="394" stroke="#94a3b8" stroke-width="1.3" stroke-dasharray="5,3" marker-end="url(#aGray)"/>
  <rect x="30" y="520" width="800" height="26" rx="6" fill="#fecdd3" stroke="#be123c" stroke-width="1.2" filter="url(#sh)"/>
  <text x="430" y="537" text-anchor="middle" font-size="9" font-weight="bold" fill="#9f1239">审计 day one：成败都落 tool_invocations（复用 ToolExecutor 既有路径——本课不新增审计逻辑）</text>
</svg>